<svg width="12" height="3" viewBox="0 0 12 3" fill="none" xmlns="http://www.w3.org/2000/svg">
<path d="M2.66667 1.33333C2.66667 2.06971 2.06971 2.66667 1.33333 2.66667C0.596954 2.66667 0 2.06971 0 1.33333C0 0.596954 0.596954 0 1.33333 0C2.06971 0 2.66667 0.596954 2.66667 1.33333Z" fill="#1D1C1B"/>
<path d="M7.33333 1.33333C7.33333 2.06971 6.73638 2.66667 6 2.66667C5.26362 2.66667 4.66667 2.06971 4.66667 1.33333C4.66667 0.596954 5.26362 0 6 0C6.73638 0 7.33333 0.596954 7.33333 1.33333Z" fill="#1D1C1B"/>
<path d="M12 1.33333C12 2.06971 11.403 2.66667 10.6667 2.66667C9.93029 2.66667 9.33333 2.06971 9.33333 1.33333C9.33333 0.596954 9.93029 0 10.6667 0C11.403 0 12 0.596954 12 1.33333Z" fill="#1D1C1B"/>
</svg>
