<svg width="18" height="20" viewBox="0 0 18 20" fill="none" xmlns="http://www.w3.org/2000/svg">
<path d="M13.5029 0.046875C13.9891 0.0470039 14.4708 0.142981 14.9199 0.329102C15.3692 0.51533 15.7783 0.787867 16.1221 1.13184C16.4658 1.47578 16.7378 1.88468 16.9238 2.33398C17.1098 2.78324 17.2061 3.26477 17.2061 3.75098C17.2059 4.23733 17.1101 4.71966 16.9238 5.16895C16.7377 5.61783 16.4647 6.02553 16.1211 6.36914L16.1055 6.38379V6.38477L7.12402 15.0303C7.02199 15.1284 6.90135 15.2052 6.76953 15.2568C6.63773 15.3085 6.49699 15.3338 6.35547 15.3311C6.21395 15.3283 6.07404 15.2979 5.94434 15.2412C5.81463 15.1845 5.69775 15.102 5.59961 15C5.50145 14.8979 5.42371 14.7774 5.37207 14.6455C5.32055 14.5138 5.2951 14.3729 5.29785 14.2314C5.30065 14.0901 5.33206 13.9509 5.38867 13.8213C5.44539 13.6915 5.52685 13.5737 5.62891 13.4756L14.6016 4.83984L14.6025 4.83887C14.8918 4.54784 15.053 4.15347 15.0518 3.74316C15.0505 3.33291 14.8867 2.93959 14.5957 2.65039C14.4517 2.5073 14.2806 2.39452 14.0928 2.31738C13.9048 2.24022 13.7032 2.20054 13.5 2.20117C13.09 2.2025 12.6973 2.36651 12.4082 2.65723L3.20508 11.832C2.56353 12.4739 2.20297 13.3444 2.20312 14.252C2.20321 14.7013 2.29186 15.1464 2.46387 15.5615C2.63592 15.9767 2.88824 16.3542 3.20605 16.6719C3.52381 16.9895 3.90131 17.2412 4.31641 17.4131C4.73167 17.585 5.17751 17.6739 5.62695 17.6738C6.53437 17.6735 7.40433 17.3126 8.0459 16.6709L15.7393 8.9834C15.8396 8.8831 15.9588 8.8033 16.0898 8.74902C16.2208 8.6948 16.3612 8.66702 16.5029 8.66699C16.6446 8.66699 16.7851 8.69488 16.916 8.74902C17.047 8.80327 17.1663 8.88317 17.2666 8.9834C17.3669 9.08369 17.4467 9.20294 17.501 9.33398C17.5552 9.46496 17.583 9.60531 17.583 9.74707C17.583 9.88881 17.5552 10.0292 17.501 10.1602C17.4481 10.2878 17.3701 10.4033 17.2734 10.502L17.2725 10.5029L17.2627 10.5117L9.57031 18.1992C8.52392 19.2452 7.10456 19.8332 5.625 19.833C4.14556 19.8327 2.72669 19.2444 1.68066 18.1982C0.634645 17.1519 0.0466684 15.7325 0.046875 14.2529C0.0471365 12.7734 0.635343 11.3546 1.68164 10.3086L10.8838 1.13086C11.5785 0.436555 12.5208 0.0466848 13.5029 0.046875Z" fill="#94A3B8" stroke="#94A3B8" stroke-width="0.09375"/>
</svg>
