<svg width="32" height="32" viewBox="0 0 32 32" fill="none" xmlns="http://www.w3.org/2000/svg">
<path fill-rule="evenodd" clip-rule="evenodd" d="M20.0001 25.9427C19.6747 27.8627 18.0121 29.3334 16.0001 29.3334C13.9881 29.3334 12.3254 27.8627 12.0001 25.9427H20.0001ZM16.0001 9.33335C18.1694 9.33335 20.0814 10.3907 21.3001 12H21.3334V12.0414C22.1601 13.152 22.6667 14.512 22.6667 16C22.6667 17.4787 22.1747 18.8587 21.3334 19.984V20H21.3201C20.9481 20.496 20.5054 20.9387 20.0001 21.316V24H17.0001V17.3334H15.0001V24H12.0001V21.316C11.4947 20.9387 11.0521 20.496 10.6801 20H10.6667V19.9827C9.82541 18.8587 9.33341 17.4787 9.33341 16C9.33341 14.5134 9.84008 13.152 10.6667 12.0414V12H10.7001C11.9187 10.3907 13.8307 9.33335 16.0001 9.33335ZM6.66675 14.6667V17.3334H2.66675V14.6667H6.66675ZM29.3334 14.6667V17.3334H25.3334V14.6667H29.3334ZM24.3907 5.72335L26.2761 7.61002L23.4481 10.438L21.5627 8.55269L24.3907 5.72335ZM7.60421 5.71882L10.4322 8.54815L8.54688 10.4335L5.71888 7.60415L7.60421 5.71882ZM17.3334 2.66669V6.66669H14.6667V2.66669H17.3334Z" fill="#FF6200"/>
</svg>
