<svg width="9" height="9" viewBox="0 0 9 9" fill="none" xmlns="http://www.w3.org/2000/svg">
<path d="M8.75158 8.75597C8.68632 8.86475 8.59933 8.86432 8.51232 8.86432C8.41986 8.86432 8.33273 8.86475 8.26747 8.75597L6.43486 6.9608C5.66257 7.61344 4.66725 7.93954 3.6611 7.83077C2.65496 7.77638 1.70872 7.34193 1.0289 6.58052C0.343628 5.81912 -0.020834 4.84016 0.000920494 3.86121C0.022675 2.82787 0.430625 1.90309 1.14308 1.19607C1.86098 0.434665 2.81815 0.0543863 3.82973 0C4.84132 0 5.82028 0.379854 6.55993 1.03249C7.30503 1.73951 7.75634 2.66429 7.8216 3.69763C7.8923 4.67658 7.56603 5.70971 6.91339 6.47111L8.75158 8.32046C8.78421 8.32046 8.80604 8.37548 8.8278 8.42987C8.84411 8.42987 8.84957 8.48383 8.84957 8.53822C8.84957 8.5926 8.84411 8.64656 8.8278 8.64656C8.80604 8.70095 8.78421 8.75597 8.75158 8.75597ZM3.92215 7.17856C4.56391 7.17856 5.1838 7.0154 5.71679 6.6347C6.24977 6.25399 6.66308 5.76494 6.90782 5.16669C7.15255 4.56845 7.218 3.96998 7.09291 3.31735C6.96782 2.7191 6.65762 2.12085 6.20621 1.68576C5.75481 1.19629 5.17856 0.923717 4.55311 0.760558C3.92767 0.651785 3.28038 0.706384 2.68757 0.978315C2.1002 1.19586 1.59432 1.63159 1.24081 2.17545C0.881861 2.66493 0.691637 3.31692 0.691637 3.96956C0.697075 4.78535 1.03427 5.60178 1.6434 6.25442C2.24708 6.85267 3.06828 7.17856 3.92215 7.17856Z" fill="black"/>
</svg>
